<svg xmlns="http://www.w3.org/2000/svg" viewBox="0 0 30 30" fill="#00bb3a" width="16px" height="16px">
    <path style="line-height:normal;text-indent:0;text-align:start;text-decoration-line:none;text-decoration-style:solid;text-decoration-color:#000;text-transform:none;block-progression:tb;isolation:auto;mix-blend-mode:normal" d="M 21.984375 3.9863281 A 1.0001 1.0001 0 0 0 21 5 L 21 22.585938 L 18.707031 20.292969 A 1.0001 1.0001 0 0 0 17.990234 19.990234 A 1.0001 1.0001 0 0 0 17.292969 21.707031 L 21.205078 25.619141 A 1.0001 1.0001 0 0 0 22.792969 25.623047 A 1.0001 1.0001 0 0 0 22.796875 25.617188 L 26.707031 21.707031 A 1.0001 1.0001 0 1 0 25.292969 20.292969 L 23 22.585938 L 23 5 A 1.0001 1.0001 0 0 0 21.984375 3.9863281 z M 5 4 A 1.0001 1.0001 0 1 0 5 6 L 6 6 A 1.0001 1.0001 0 1 0 6 4 L 5 4 z M 5 8 A 1.0001 1.0001 0 1 0 5 10 L 8 10 A 1.0001 1.0001 0 1 0 8 8 L 5 8 z M 5 12 A 1.0001 1.0001 0 1 0 5 14 L 10 14 A 1.0001 1.0001 0 1 0 10 12 L 5 12 z M 5 16 A 1.0001 1.0001 0 1 0 5 18 L 11 18 A 1.0001 1.0001 0 1 0 11 16 L 5 16 z M 5 20 A 1.0001 1.0001 0 1 0 5 22 L 13 22 A 1.0001 1.0001 0 1 0 13 20 L 5 20 z M 5 24 A 1.0001 1.0001 0 1 0 5 26 L 15 26 A 1.0001 1.0001 0 1 0 15 24 L 5 24 z" fill="#00bb3a"/>
</svg>